<svg width="394" height="49" viewBox="0 0 394 49" fill="none" xmlns="http://www.w3.org/2000/svg">
<path d="M95.0941 47.5916C85.6585 47.5916 79.3039 41.4884 79.3039 33.8919H87.0706C87.1348 37.398 90.4084 40.5794 95.2866 40.5794C99.7798 40.5794 102.668 37.7876 102.668 34.2815C102.668 31.165 100.037 29.347 96.3136 28.3082L90.7935 26.75C81.2937 24.2827 79.6248 18.5042 79.6248 14.6086C79.6248 6.68749 86.4929 1.29854 94.6448 1.29854C102.732 1.29854 109.087 6.36285 109.087 14.7384H101.32C101.32 11.0376 98.5602 8.37559 94.4522 8.37559C90.6651 8.37559 87.5199 10.9727 87.5199 14.4787C87.5199 15.7124 87.9051 18.3094 92.9759 19.6729L98.2393 21.2312C105.172 23.179 110.499 26.8149 110.499 33.9569C110.499 42.1377 103.759 47.5916 95.0941 47.5916Z" fill="white"/>
<path d="M125.35 16.4915H131.704V22.4648H125.35V46.8124H117.904V22.4648H112.512V16.4915H117.904V5.32402H125.35V16.4915Z" fill="white"/>
<path d="M151.519 15.7124C153.316 15.7124 155.242 16.1019 156.397 16.7512L154.921 23.8932C153.188 22.9842 151.647 22.7894 150.556 22.7894C145.678 22.7894 142.982 27.7239 142.982 36.2293V46.8124H135.472V16.4915H142.918V22.9842C144.523 17.9199 147.796 15.7124 151.519 15.7124Z" fill="white"/>
<path d="M180.36 32.7232V16.4915H187.806V46.8124H180.36V42.0728C178.819 45.9035 174.069 47.5916 171.053 47.5916C163.35 47.5916 159.05 42.3325 159.05 33.5024V16.4915H166.495V33.1777C166.495 38.0473 169.384 40.5794 172.722 40.5794C176.123 40.5794 180.36 38.6316 180.36 32.7232Z" fill="white"/>
<path d="M209.121 47.5916C200.456 47.5916 192.817 41.2287 192.817 31.6195C192.817 22.0103 200.456 15.7124 209.121 15.7124C214.32 15.7124 218.557 18.0497 221.317 21.5558L216.053 25.7761C214.513 23.8932 211.945 22.7245 209.249 22.7245C204.05 22.7245 200.327 26.4903 200.327 31.6195C200.327 36.6838 204.05 40.5794 209.249 40.5794C211.945 40.5794 214.513 39.4107 216.053 37.5279L221.317 41.7481C218.557 45.2542 214.32 47.5916 209.121 47.5916Z" fill="white"/>
<path d="M235.93 16.4915H242.285V22.4648H235.93V46.8124H228.485V22.4648H223.093V16.4915H228.485V5.32402H235.93V16.4915Z" fill="white"/>
<path d="M262.806 15.7124C271.215 15.7124 278.018 22.3998 278.018 31.6195C278.018 40.8391 271.215 47.5916 262.806 47.5916C257.799 47.5916 253.049 44.9945 250.867 40.8391V46.8124H246.759V0H250.867V22.3998C253.114 18.2445 257.735 15.7124 262.806 15.7124ZM262.485 43.631C268.84 43.631 273.975 38.307 273.975 31.5546C273.975 24.8671 268.84 19.6729 262.485 19.6729C256.516 19.6729 250.867 24.4126 250.867 31.7493C250.867 38.7615 256.259 43.631 262.485 43.631Z" fill="white"/>
<path d="M297.932 47.5916C289.395 47.5916 282.27 41.2287 282.27 31.6195C282.27 22.0103 289.395 15.7124 297.932 15.7124C306.469 15.7124 313.658 22.0103 313.658 31.6195C313.658 41.2287 306.469 47.5916 297.932 47.5916ZM297.932 43.631C304.222 43.631 309.55 38.7615 309.55 31.6195C309.55 24.4775 304.222 19.6729 297.932 19.6729C291.577 19.6729 286.378 24.4775 286.378 31.6195C286.378 38.7615 291.577 43.631 297.932 43.631Z" fill="white"/>
<path d="M333.491 47.5916C324.954 47.5916 317.829 41.2287 317.829 31.6195C317.829 22.0103 324.954 15.7124 333.491 15.7124C342.028 15.7124 349.217 22.0103 349.217 31.6195C349.217 41.2287 342.028 47.5916 333.491 47.5916ZM333.491 43.631C339.781 43.631 345.109 38.7615 345.109 31.6195C345.109 24.4775 339.781 19.6729 333.491 19.6729C327.136 19.6729 321.937 24.4775 321.937 31.6195C321.937 38.7615 327.136 43.631 333.491 43.631Z" fill="white"/>
<path d="M363.915 47.5916C358.715 47.5916 353.516 44.54 353.003 38.7615H356.79C357.239 41.2936 359.55 43.8907 363.915 43.8907C368.215 43.8907 370.847 41.6183 370.847 38.5667C370.847 36.0995 369.178 34.4763 366.097 33.6972L361.796 32.6583C357.56 31.6195 354.158 29.412 354.158 24.3477C354.158 19.4132 358.33 15.7124 364.043 15.7124C369.05 15.7124 373.671 18.5042 373.864 23.9581H369.884C369.691 21.2312 367.06 19.4132 364.107 19.4132C360.641 19.4132 358.266 21.5558 358.266 24.4126C358.266 27.2694 360.705 28.503 362.888 29.0224L367.316 30.1262C373.158 31.5546 374.955 35.1256 374.955 38.6316C374.955 44.0206 370.141 47.5916 363.915 47.5916Z" fill="white"/>
<path d="M387.132 16.4915H394V20.0625H387.132V46.8124H383.088V20.0625H377.632V16.4915H383.088V5.12924H387.132V16.4915Z" fill="white"/>
<path d="M52.0742 3.17423H24.5498C23.4265 3.17423 23.1858 3.25606 22.5439 3.91078L0.722111 24.5322C0.0802345 25.1869 0 25.4324 0 26.5781V38.6903C0 45.5628 3.36985 49 10.1096 49H37.634C38.7553 49 38.996 48.9182 39.6379 48.2634L61.4617 27.6421C62.1016 26.9873 62.1818 26.7418 62.1818 25.5961V13.4859C62.1818 6.61147 58.814 3.17423 52.0742 3.17423Z" fill="#F67ACB"/>
</svg>
